<?xml version='1.0' encoding='utf-8'?>
<mlt LC_NUMERIC="C" producer="main_bin" version="7.13.0" root="/home/genomexyz/yt/image_compression">
 <profile frame_rate_num="60" sample_aspect_num="1" display_aspect_den="30" colorspace="709" progressive="1" description="1272x720 60.00fps" display_aspect_num="53" frame_rate_den="1" width="1272" height="720" sample_aspect_den="1"/>
 <producer id="producer0" in="00:00:00.000" out="00:00:22.100">
  <property name="length">1327</property>
  <property name="eof">pause</property>
  <property name="resource">vidsec/2023-01-21 09-31-45.mkv</property>
  <property name="meta.media.nb_streams">2</property>
  <property name="meta.media.0.stream.type">video</property>
  <property name="meta.media.0.stream.frame_rate">60</property>
  <property name="meta.media.0.stream.sample_aspect_ratio">0</property>
  <property name="meta.media.0.codec.width">1272</property>
  <property name="meta.media.0.codec.height">720</property>
  <property name="meta.media.0.codec.rotate">0</property>
  <property name="meta.media.0.codec.pix_fmt">yuv420p</property>
  <property name="meta.media.0.codec.sample_aspect_ratio">1</property>
  <property name="meta.media.0.codec.colorspace">709</property>
  <property name="meta.media.0.codec.color_trc">1</property>
  <property name="meta.media.0.codec.name">h264</property>
  <property name="meta.media.0.codec.long_name">H.264 / AVC / MPEG-4 AVC / MPEG-4 part 10</property>
  <property name="meta.media.0.codec.bit_rate">0</property>
  <property name="meta.attr.0.stream.DURATION.markup">00:00:22.117000000</property>
  <property name="meta.media.1.stream.type">audio</property>
  <property name="meta.media.1.codec.sample_fmt">fltp</property>
  <property name="meta.media.1.codec.sample_rate">48000</property>
  <property name="meta.media.1.codec.channels">2</property>
  <property name="meta.media.1.codec.name">aac</property>
  <property name="meta.media.1.codec.long_name">AAC (Advanced Audio Coding)</property>
  <property name="meta.media.1.codec.bit_rate">0</property>
  <property name="meta.attr.1.stream.title.markup">simple_aac_recording</property>
  <property name="meta.attr.1.stream.DURATION.markup">00:00:22.037000000</property>
  <property name="meta.attr.ENCODER.markup">Lavf58.76.100</property>
  <property name="seekable">1</property>
  <property name="meta.media.sample_aspect_num">1</property>
  <property name="meta.media.sample_aspect_den">1</property>
  <property name="aspect_ratio">1</property>
  <property name="format">3</property>
  <property name="audio_index">1</property>
  <property name="video_index">0</property>
  <property name="mute_on_pause">0</property>
  <property name="mlt_service">avformat</property>
  <property name="kdenlive:clipname"/>
  <property name="kdenlive:clip_type">0</property>
  <property name="kdenlive:folderid">-1</property>
  <property name="kdenlive:id">3</property>
  <property name="kdenlive:file_size">3223471</property>
  <property name="kdenlive:file_hash">994ea109fc972034b3130a6dcf3edd1a</property>
  <property name="kdenlive:audio_max1">207</property>
  <property name="meta.media.frame_rate_num">60</property>
  <property name="meta.media.frame_rate_den">1</property>
  <property name="meta.media.colorspace">709</property>
  <property name="meta.media.color_trc">1</property>
  <property name="meta.media.has_b_frames">2</property>
  <property name="meta.media.width">1272</property>
  <property name="meta.media.height">720</property>
  <property name="meta.media.color_range">mpeg</property>
  <property name="meta.media.top_field_first">0</property>
  <property name="meta.media.progressive">1</property>
 </producer>
 <producer id="producer1" in="00:00:00.000" out="00:15:06.367">
  <property name="length">54383</property>
  <property name="eof">pause</property>
  <property name="resource">vidsec/2023-01-21 09-55-15.mkv</property>
  <property name="meta.media.nb_streams">2</property>
  <property name="meta.media.0.stream.type">video</property>
  <property name="meta.media.0.stream.frame_rate">60</property>
  <property name="meta.media.0.stream.sample_aspect_ratio">0</property>
  <property name="meta.media.0.codec.width">1272</property>
  <property name="meta.media.0.codec.height">720</property>
  <property name="meta.media.0.codec.rotate">0</property>
  <property name="meta.media.0.codec.pix_fmt">yuv420p</property>
  <property name="meta.media.0.codec.sample_aspect_ratio">1</property>
  <property name="meta.media.0.codec.colorspace">709</property>
  <property name="meta.media.0.codec.color_trc">1</property>
  <property name="meta.media.0.codec.name">h264</property>
  <property name="meta.media.0.codec.long_name">H.264 / AVC / MPEG-4 AVC / MPEG-4 part 10</property>
  <property name="meta.media.0.codec.bit_rate">0</property>
  <property name="meta.attr.0.stream.DURATION.markup">00:15:06.384000000</property>
  <property name="meta.media.1.stream.type">audio</property>
  <property name="meta.media.1.codec.sample_fmt">fltp</property>
  <property name="meta.media.1.codec.sample_rate">48000</property>
  <property name="meta.media.1.codec.channels">2</property>
  <property name="meta.media.1.codec.name">aac</property>
  <property name="meta.media.1.codec.long_name">AAC (Advanced Audio Coding)</property>
  <property name="meta.media.1.codec.bit_rate">0</property>
  <property name="meta.attr.1.stream.title.markup">simple_aac_recording</property>
  <property name="meta.attr.1.stream.DURATION.markup">00:15:06.346000000</property>
  <property name="meta.attr.ENCODER.markup">Lavf58.76.100</property>
  <property name="seekable">1</property>
  <property name="meta.media.sample_aspect_num">1</property>
  <property name="meta.media.sample_aspect_den">1</property>
  <property name="aspect_ratio">1</property>
  <property name="format">3</property>
  <property name="audio_index">1</property>
  <property name="video_index">0</property>
  <property name="mute_on_pause">0</property>
  <property name="mlt_service">avformat-novalidate</property>
  <property name="kdenlive:clipname"/>
  <property name="meta.media.frame_rate_num">60</property>
  <property name="meta.media.frame_rate_den">1</property>
  <property name="meta.media.colorspace">709</property>
  <property name="meta.media.color_trc">1</property>
  <property name="meta.media.has_b_frames">2</property>
  <property name="meta.media.width">1272</property>
  <property name="meta.media.height">720</property>
  <property name="meta.media.color_range">mpeg</property>
  <property name="meta.media.top_field_first">0</property>
  <property name="meta.media.progressive">1</property>
  <property name="kdenlive:clip_type">0</property>
  <property name="kdenlive:folderid">-1</property>
  <property name="kdenlive:id">4</property>
  <property name="kdenlive:file_size">103810906</property>
  <property name="kdenlive:file_hash">5dfd7268dbb42afb2b47cb0b22cbd9cd</property>
  <property name="kdenlive:audio_max1">196</property>
 </producer>
 <producer id="producer2" in="00:00:00.000" out="00:15:05.683">
  <property name="length">54342</property>
  <property name="eof">pause</property>
  <property name="resource">vidsec/WhatsApp Audio 2023-01-21 at 10.11.10 AM0001.m4a</property>
  <property name="meta.media.nb_streams">1</property>
  <property name="meta.media.0.stream.type">audio</property>
  <property name="meta.media.0.codec.sample_fmt">fltp</property>
  <property name="meta.media.0.codec.sample_rate">48000</property>
  <property name="meta.media.0.codec.channels">2</property>
  <property name="meta.media.0.codec.name">aac</property>
  <property name="meta.media.0.codec.long_name">AAC (Advanced Audio Coding)</property>
  <property name="meta.media.0.codec.bit_rate">163401</property>
  <property name="meta.attr.0.stream.handler_name.markup">SoundHandler</property>
  <property name="meta.attr.0.stream.vendor_id.markup">[0][0][0][0]</property>
  <property name="meta.attr.major_brand.markup">M4A </property>
  <property name="meta.attr.minor_version.markup">512</property>
  <property name="meta.attr.compatible_brands.markup">M4A isomiso2</property>
  <property name="meta.attr.encoder.markup">Lavf59.16.100</property>
  <property name="seekable">1</property>
  <property name="audio_index">0</property>
  <property name="video_index">-1</property>
  <property name="mute_on_pause">1</property>
  <property name="mlt_service">avformat</property>
  <property name="kdenlive:clipname"/>
  <property name="kdenlive:clip_type">1</property>
  <property name="kdenlive:originalurl">vidsec/WhatsApp Audio 2023-01-21 at 10.11.10 AM0001.m4a</property>
  <property name="kdenlive:id">2</property>
  <property name="kdenlive:file_size">18670520</property>
  <property name="kdenlive:file_hash">9d4e929cf5986d6fa3aa3285087e1079</property>
  <property name="kdenlive:folderid">-1</property>
  <property name="kdenlive:audio_max0">150</property>
 </producer>
 <producer id="producer3" in="00:00:00.000" out="00:00:04.983">
  <property name="length">00:00:05.000</property>
  <property name="eof">pause</property>
  <property name="resource">vidsec/Screenshot from 2023-01-21 13-31-53.png</property>
  <property name="ttl">25</property>
  <property name="aspect_ratio">1</property>
  <property name="progressive">1</property>
  <property name="seekable">1</property>
  <property name="format">2</property>
  <property name="meta.media.width">612</property>
  <property name="meta.media.height">476</property>
  <property name="mlt_service">qimage</property>
  <property name="kdenlive:clipname"/>
  <property name="kdenlive:duration">00:00:05.000</property>
  <property name="kdenlive:folderid">-1</property>
  <property name="kdenlive:clip_type">2</property>
  <property name="kdenlive:id">9</property>
  <property name="kdenlive:file_size">60078</property>
  <property name="kdenlive:file_hash">697e3bf40e579b346cc151e51aba0fbd</property>
 </producer>
 <producer id="producer4" in="00:00:00.000" out="00:00:05.433">
  <property name="length">327</property>
  <property name="eof">pause</property>
  <property name="resource">vidsec/Screenshot from 2023-01-21 13-10-02.png</property>
  <property name="ttl">25</property>
  <property name="aspect_ratio">1</property>
  <property name="progressive">1</property>
  <property name="seekable">1</property>
  <property name="format">2</property>
  <property name="meta.media.width">435</property>
  <property name="meta.media.height">489</property>
  <property name="mlt_service">qimage</property>
  <property name="kdenlive:clipname"/>
  <property name="kdenlive:duration">00:00:05.000</property>
  <property name="kdenlive:folderid">-1</property>
  <property name="kdenlive:clip_type">2</property>
  <property name="kdenlive:id">10</property>
  <property name="kdenlive:file_size">15698</property>
  <property name="kdenlive:file_hash">eb7bb640801f5f39adc1d53169862d28</property>
 </producer>
 <producer id="producer5" in="00:00:00.000" out="00:00:04.983">
  <property name="length">00:00:05.000</property>
  <property name="eof">pause</property>
  <property name="resource">vidsec/mind.png</property>
  <property name="ttl">25</property>
  <property name="aspect_ratio">1</property>
  <property name="progressive">1</property>
  <property name="seekable">1</property>
  <property name="format">1</property>
  <property name="meta.media.width">2480</property>
  <property name="meta.media.height">3508</property>
  <property name="mlt_service">qimage</property>
  <property name="kdenlive:clipname"/>
  <property name="kdenlive:duration">00:00:05.000</property>
  <property name="kdenlive:folderid">-1</property>
  <property name="kdenlive:clip_type">2</property>
  <property name="kdenlive:id">11</property>
  <property name="kdenlive:file_size">43874</property>
  <property name="kdenlive:file_hash">790d59990cd1d25743544b5151481915</property>
 </producer>
 <producer id="producer6" in="00:00:00.000" out="00:00:04.983">
  <property name="length">300</property>
  <property name="eof">pause</property>
  <property name="resource"/>
  <property name="progressive">1</property>
  <property name="aspect_ratio">1</property>
  <property name="seekable">1</property>
  <property name="mlt_service">kdenlivetitle</property>
  <property name="kdenlive:duration">300</property>
  <property name="kdenlive:clipname">dont need to...</property>
  <property name="xmldata">&lt;kdenlivetitle duration="300" LC_NUMERIC="C" width="1272" height="720" out="299">
 &lt;item type="QGraphicsTextItem" z-index="0">
  &lt;position x="264" y="389">
   &lt;transform>1,0,0,0,1,0,0,0,1&lt;/transform>
  &lt;/position>
  &lt;content shadow="0;#64000000;3;3;3" font-underline="0" box-height="152" font-outline-color="0,0,0,255" font="Jura" letter-spacing="0" font-pixel-size="64" font-italic="0" typewriter="0;2;1;0;0" alignment="1" font-weight="50" font-outline="0" box-width="731.656" font-color="255,0,0,255">dont need to memorize
these million pixel value&lt;/content>
 &lt;/item>
 &lt;startviewport rect="0,0,1272,720"/>
 &lt;endviewport rect="0,0,1272,720"/>
 &lt;background color="0,0,0,0"/>
&lt;/kdenlivetitle>
</property>
  <property name="kdenlive:folderid">-1</property>
  <property name="kdenlive:clip_type">2</property>
  <property name="kdenlive:id">12</property>
  <property name="kdenlive:file_hash">9ec5b472efe6d338b2ec1036cff59eb0</property>
  <property name="force_reload">0</property>
  <property name="meta.media.width">1272</property>
  <property name="meta.media.height">720</property>
 </producer>
 <producer id="producer7" in="00:00:00.000" out="00:00:04.983">
  <property name="length">300</property>
  <property name="eof">pause</property>
  <property name="resource"/>
  <property name="progressive">1</property>
  <property name="aspect_ratio">1</property>
  <property name="seekable">1</property>
  <property name="mlt_service">kdenlivetitle</property>
  <property name="kdenlive:duration">300</property>
  <property name="kdenlive:clipname">729 bytes</property>
  <property name="xmldata">&lt;kdenlivetitle duration="300" LC_NUMERIC="C" width="1272" height="720" out="299">
 &lt;item type="QGraphicsTextItem" z-index="0">
  &lt;position x="409" y="267">
   &lt;transform>1,0,0,0,1,0,0,0,1&lt;/transform>
  &lt;/position>
  &lt;content shadow="0;#64000000;3;3;3" font-underline="0" box-height="76" font-outline-color="0,0,0,255" font="Jura" letter-spacing="0" font-pixel-size="64" font-italic="0" typewriter="0;2;1;0;0" alignment="1" font-weight="50" font-outline="0" box-width="293.891" font-color="255,0,0,255">729 bytes&lt;/content>
 &lt;/item>
 &lt;startviewport rect="0,0,1272,720"/>
 &lt;endviewport rect="0,0,1272,720"/>
 &lt;background color="0,0,0,0"/>
&lt;/kdenlivetitle>
</property>
  <property name="kdenlive:folderid">-1</property>
  <property name="kdenlive:clip_type">2</property>
  <property name="kdenlive:id">13</property>
  <property name="kdenlive:file_hash">16e03ecb234a6ccce06b8e23975457b3</property>
  <property name="force_reload">0</property>
  <property name="meta.media.width">1272</property>
  <property name="meta.media.height">720</property>
 </producer>
 <producer id="producer8" in="00:00:00.000" out="00:00:04.983">
  <property name="length">300</property>
  <property name="eof">pause</property>
  <property name="resource"/>
  <property name="progressive">1</property>
  <property name="aspect_ratio">1</property>
  <property name="seekable">1</property>
  <property name="mlt_service">kdenlivetitle</property>
  <property name="kdenlive:duration">300</property>
  <property name="kdenlive:clipname">2.3 kb</property>
  <property name="xmldata">&lt;kdenlivetitle duration="300" LC_NUMERIC="C" width="1272" height="720" out="299">
 &lt;item type="QGraphicsTextItem" z-index="0">
  &lt;position x="420" y="275">
   &lt;transform>1,0,0,0,1,0,0,0,1&lt;/transform>
  &lt;/position>
  &lt;content shadow="0;#64000000;3;3;3" font-underline="0" box-height="76" font-outline-color="0,0,0,255" font="Jura" letter-spacing="0" font-pixel-size="64" font-italic="0" typewriter="0;2;1;0;0" alignment="1" font-weight="50" font-outline="0" box-width="173.906" font-color="255,0,0,255">2.3 kb&lt;/content>
 &lt;/item>
 &lt;startviewport rect="0,0,1272,720"/>
 &lt;endviewport rect="0,0,1272,720"/>
 &lt;background color="0,0,0,0"/>
&lt;/kdenlivetitle>
</property>
  <property name="kdenlive:folderid">-1</property>
  <property name="kdenlive:clip_type">2</property>
  <property name="kdenlive:id">14</property>
  <property name="kdenlive:file_hash">cc45f313a89c6d2d900c59deea445b5b</property>
  <property name="force_reload">0</property>
  <property name="meta.media.width">1272</property>
  <property name="meta.media.height">720</property>
 </producer>
 <producer id="producer9" in="00:00:00.000" out="00:00:04.983">
  <property name="length">300</property>
  <property name="eof">pause</property>
  <property name="resource"/>
  <property name="progressive">1</property>
  <property name="aspect_ratio">1</property>
  <property name="seekable">1</property>
  <property name="mlt_service">kdenlivetitle</property>
  <property name="kdenlive:duration">300</property>
  <property name="kdenlive:clipname">The autoenco...</property>
  <property name="xmldata">&lt;kdenlivetitle duration="300" LC_NUMERIC="C" width="1272" height="720" out="299">
 &lt;item type="QGraphicsTextItem" z-index="0">
  &lt;position x="188" y="337">
   &lt;transform>1,0,0,0,1,0,0,0,1&lt;/transform>
  &lt;/position>
  &lt;content shadow="0;#64000000;3;3;3" font-underline="0" box-height="228" font-outline-color="0,0,0,255" font="Jura" letter-spacing="0" font-pixel-size="64" font-italic="0" typewriter="0;2;1;0;0" alignment="1" font-weight="50" font-outline="0" box-width="782.203" font-color="255,0,0,255">The autoencoder only 
"understands" its general 
silhouette&lt;/content>
 &lt;/item>
 &lt;startviewport rect="0,0,1272,720"/>
 &lt;endviewport rect="0,0,1272,720"/>
 &lt;background color="0,0,0,0"/>
&lt;/kdenlivetitle>
</property>
  <property name="kdenlive:folderid">-1</property>
  <property name="kdenlive:clip_type">2</property>
  <property name="kdenlive:id">15</property>
  <property name="kdenlive:file_hash">7e76dc78f0c00227e8c465c157be918e</property>
  <property name="force_reload">0</property>
  <property name="meta.media.width">1272</property>
  <property name="meta.media.height">720</property>
 </producer>
 <producer id="producer10" in="00:00:00.000" out="00:00:04.983">
  <property name="length">300</property>
  <property name="eof">pause</property>
  <property name="resource"/>
  <property name="progressive">1</property>
  <property name="aspect_ratio">1</property>
  <property name="seekable">1</property>
  <property name="mlt_service">kdenlivetitle</property>
  <property name="kdenlive:duration">300</property>
  <property name="kdenlive:clipname">the neural n...</property>
  <property name="xmldata">&lt;kdenlivetitle duration="300" LC_NUMERIC="C" width="1272" height="720" out="299">
 &lt;item type="QGraphicsTextItem" z-index="0">
  &lt;position x="158" y="149">
   &lt;transform>1,0,0,0,1,0,0,0,1&lt;/transform>
  &lt;/position>
  &lt;content shadow="0;#64000000;3;3;3" font-underline="0" box-height="228" font-outline-color="0,0,0,255" font="Jura" letter-spacing="0" font-pixel-size="64" font-italic="0" typewriter="0;2;1;0;0" alignment="1" font-weight="50" font-outline="0" box-width="972.109" font-color="255,0,0,255">the neural network is a blackbox
we cant control how the pattern
interpreted by it.&lt;/content>
 &lt;/item>
 &lt;startviewport rect="0,0,1272,720"/>
 &lt;endviewport rect="0,0,1272,720"/>
 &lt;background color="0,0,0,0"/>
&lt;/kdenlivetitle>
</property>
  <property name="kdenlive:folderid">-1</property>
  <property name="kdenlive:clip_type">2</property>
  <property name="kdenlive:id">16</property>
  <property name="kdenlive:file_hash">f3bd59d10079ea5281c858a9bfe8ceb7</property>
  <property name="force_reload">0</property>
  <property name="meta.media.width">1272</property>
  <property name="meta.media.height">720</property>
 </producer>
 <producer id="producer11" in="00:00:00.000" out="00:00:04.983">
  <property name="length">300</property>
  <property name="eof">pause</property>
  <property name="resource"/>
  <property name="progressive">1</property>
  <property name="aspect_ratio">1</property>
  <property name="seekable">1</property>
  <property name="mlt_service">kdenlivetitle</property>
  <property name="kdenlive:duration">300</property>
  <property name="kdenlive:clipname">same as the ...</property>
  <property name="xmldata">&lt;kdenlivetitle duration="300" LC_NUMERIC="C" width="1272" height="720" out="299">
 &lt;item type="QGraphicsTextItem" z-index="0">
  &lt;position x="179" y="188">
   &lt;transform>1,0,0,0,1,0,0,0,1&lt;/transform>
  &lt;/position>
  &lt;content shadow="0;#64000000;3;3;3" font-underline="0" box-height="380" font-outline-color="0,0,0,255" font="Jura" letter-spacing="0" font-pixel-size="64" font-italic="0" typewriter="0;2;1;0;0" alignment="1" font-weight="50" font-outline="0" box-width="875.734" font-color="255,0,0,255">same as the teacher
cant control how the student
thinking. Even with the same
structure, when we retrain it,
the result can be different.&lt;/content>
 &lt;/item>
 &lt;startviewport rect="0,0,1272,720"/>
 &lt;endviewport rect="0,0,1272,720"/>
 &lt;background color="0,0,0,0"/>
&lt;/kdenlivetitle>
</property>
  <property name="kdenlive:folderid">-1</property>
  <property name="kdenlive:clip_type">2</property>
  <property name="kdenlive:id">17</property>
  <property name="kdenlive:file_hash">cd56e039160e32b15889ab0711cfebe4</property>
  <property name="force_reload">0</property>
  <property name="meta.media.width">1272</property>
  <property name="meta.media.height">720</property>
 </producer>
 <producer id="producer12" in="00:00:00.000" out="00:00:04.983">
  <property name="length">300</property>
  <property name="eof">pause</property>
  <property name="resource"/>
  <property name="progressive">1</property>
  <property name="aspect_ratio">1</property>
  <property name="seekable">1</property>
  <property name="mlt_service">kdenlivetitle</property>
  <property name="kdenlive:duration">300</property>
  <property name="kdenlive:clipname">but a certai...</property>
  <property name="xmldata">&lt;kdenlivetitle duration="300" LC_NUMERIC="C" width="1272" height="720" out="299">
 &lt;item type="QGraphicsTextItem" z-index="0">
  &lt;position x="185" y="209">
   &lt;transform>1,0,0,0,1,0,0,0,1&lt;/transform>
  &lt;/position>
  &lt;content shadow="0;#64000000;3;3;3" font-underline="0" box-height="228" font-outline-color="0,0,0,255" font="Jura" letter-spacing="0" font-pixel-size="64" font-italic="0" typewriter="0;2;1;0;0" alignment="1" font-weight="50" font-outline="0" box-width="920.563" font-color="255,0,0,255">but a certain structure is more
efficient than other for a
certain problem&lt;/content>
 &lt;/item>
 &lt;startviewport rect="0,0,1272,720"/>
 &lt;endviewport rect="0,0,1272,720"/>
 &lt;background color="0,0,0,0"/>
&lt;/kdenlivetitle>
</property>
  <property name="kdenlive:folderid">-1</property>
  <property name="kdenlive:clip_type">2</property>
  <property name="kdenlive:id">18</property>
  <property name="kdenlive:file_hash">38a42a02b289311523b1f0ac0ce96d8c</property>
  <property name="force_reload">0</property>
  <property name="meta.media.width">1272</property>
  <property name="meta.media.height">720</property>
 </producer>
 <playlist id="main_bin">
  <property name="kdenlive:docproperties.activeTrack">1</property>
  <property name="kdenlive:docproperties.audioChannels">2</property>
  <property name="kdenlive:docproperties.audioTarget">-1</property>
  <property name="kdenlive:docproperties.compositing">1</property>
  <property name="kdenlive:docproperties.disablepreview">0</property>
  <property name="kdenlive:docproperties.documentid">1674267293004</property>
  <property name="kdenlive:docproperties.enableTimelineZone">0</property>
  <property name="kdenlive:docproperties.enableexternalproxy">0</property>
  <property name="kdenlive:docproperties.enableproxy">0</property>
  <property name="kdenlive:docproperties.externalproxyparams"/>
  <property name="kdenlive:docproperties.generateimageproxy">0</property>
  <property name="kdenlive:docproperties.generateproxy">0</property>
  <property name="kdenlive:docproperties.guidesCategories">[
    {
        "color": "#9b59b6",
        "comment": "Category 1",
        "index": 0
    },
    {
        "color": "#3daee9",
        "comment": "Category 2",
        "index": 1
    },
    {
        "color": "#1abc9c",
        "comment": "Category 3",
        "index": 2
    },
    {
        "color": "#1cdc9a",
        "comment": "Category 4",
        "index": 3
    },
    {
        "color": "#c9ce3b",
        "comment": "Category 5",
        "index": 4
    },
    {
        "color": "#fdbc4b",
        "comment": "Category 6",
        "index": 5
    },
    {
        "color": "#f39c1f",
        "comment": "Category 7",
        "index": 6
    },
    {
        "color": "#f47750",
        "comment": "Category 8",
        "index": 7
    },
    {
        "color": "#da4453",
        "comment": "Category 9",
        "index": 8
    }
]
</property>
  <property name="kdenlive:docproperties.kdenliveversion">22.12.0</property>
  <property name="kdenlive:docproperties.position">23272</property>
  <property name="kdenlive:docproperties.previewextension"/>
  <property name="kdenlive:docproperties.previewparameters"/>
  <property name="kdenlive:docproperties.profile">/home/genomexyz/.local/share/kdenlive/profiles/customprofile2</property>
  <property name="kdenlive:docproperties.proxyextension"/>
  <property name="kdenlive:docproperties.proxyimageminsize">2000</property>
  <property name="kdenlive:docproperties.proxyimagesize">800</property>
  <property name="kdenlive:docproperties.proxyminsize">1000</property>
  <property name="kdenlive:docproperties.proxyparams"/>
  <property name="kdenlive:docproperties.proxyresize">640</property>
  <property name="kdenlive:docproperties.scrollPos">10190</property>
  <property name="kdenlive:docproperties.seekOffset">30000</property>
  <property name="kdenlive:docproperties.version">1.04</property>
  <property name="kdenlive:docproperties.verticalzoom">1</property>
  <property name="kdenlive:docproperties.videoTarget">3</property>
  <property name="kdenlive:docproperties.zonein">0</property>
  <property name="kdenlive:docproperties.zoneout">75</property>
  <property name="kdenlive:docproperties.zoom">8</property>
  <property name="kdenlive:expandedFolders"/>
  <property name="kdenlive:documentnotes"/>
  <property name="kdenlive:docproperties.groups">[
    {
        "children": [
            {
                "data": "2:14877",
                "leaf": "clip",
                "type": "Leaf"
            },
            {
                "data": "1:14877",
                "leaf": "clip",
                "type": "Leaf"
            }
        ],
        "type": "Normal"
    },
    {
        "children": [
            {
                "data": "2:14099",
                "leaf": "clip",
                "type": "Leaf"
            },
            {
                "data": "1:14099",
                "leaf": "clip",
                "type": "Leaf"
            }
        ],
        "type": "Normal"
    },
    {
        "children": [
            {
                "data": "2:13483",
                "leaf": "clip",
                "type": "Leaf"
            },
            {
                "data": "1:13483",
                "leaf": "clip",
                "type": "Leaf"
            }
        ],
        "type": "Normal"
    },
    {
        "children": [
            {
                "data": "2:11026",
                "leaf": "clip",
                "type": "Leaf"
            },
            {
                "data": "1:11026",
                "leaf": "clip",
                "type": "Leaf"
            }
        ],
        "type": "Normal"
    },
    {
        "children": [
            {
                "data": "2:26651",
                "leaf": "clip",
                "type": "Leaf"
            },
            {
                "data": "1:26651",
                "leaf": "clip",
                "type": "Leaf"
            }
        ],
        "type": "Normal"
    },
    {
        "children": [
            {
                "data": "2:15272",
                "leaf": "clip",
                "type": "Leaf"
            },
            {
                "data": "1:15272",
                "leaf": "clip",
                "type": "Leaf"
            }
        ],
        "type": "Normal"
    },
    {
        "children": [
            {
                "data": "1:8004",
                "leaf": "clip",
                "type": "Leaf"
            },
            {
                "data": "2:8004",
                "leaf": "clip",
                "type": "Leaf"
            }
        ],
        "type": "Normal"
    },
    {
        "children": [
            {
                "data": "2:4296",
                "leaf": "clip",
                "type": "Leaf"
            },
            {
                "data": "1:4296",
                "leaf": "clip",
                "type": "Leaf"
            }
        ],
        "type": "Normal"
    },
    {
        "children": [
            {
                "data": "2:25751",
                "leaf": "clip",
                "type": "Leaf"
            },
            {
                "data": "1:25751",
                "leaf": "clip",
                "type": "Leaf"
            }
        ],
        "type": "Normal"
    },
    {
        "children": [
            {
                "data": "2:12153",
                "leaf": "clip",
                "type": "Leaf"
            },
            {
                "data": "1:12153",
                "leaf": "clip",
                "type": "Leaf"
            }
        ],
        "type": "Normal"
    },
    {
        "children": [
            {
                "data": "2:3093",
                "leaf": "clip",
                "type": "Leaf"
            },
            {
                "data": "1:3093",
                "leaf": "clip",
                "type": "Leaf"
            }
        ],
        "type": "Normal"
    },
    {
        "children": [
            {
                "data": "2:1142",
                "leaf": "clip",
                "type": "Leaf"
            },
            {
                "data": "1:1142",
                "leaf": "clip",
                "type": "Leaf"
            },
            {
                "data": "2:0",
                "leaf": "clip",
                "type": "Leaf"
            },
            {
                "data": "1:0",
                "leaf": "clip",
                "type": "Leaf"
            }
        ],
        "type": "Normal"
    },
    {
        "children": [
            {
                "data": "2:15712",
                "leaf": "clip",
                "type": "Leaf"
            },
            {
                "data": "1:15712",
                "leaf": "clip",
                "type": "Leaf"
            }
        ],
        "type": "Normal"
    },
    {
        "children": [
            {
                "data": "2:27052",
                "leaf": "clip",
                "type": "Leaf"
            },
            {
                "data": "1:27052",
                "leaf": "clip",
                "type": "Leaf"
            }
        ],
        "type": "Normal"
    },
    {
        "children": [
            {
                "data": "1:26981",
                "leaf": "clip",
                "type": "Leaf"
            },
            {
                "data": "2:26981",
                "leaf": "clip",
                "type": "Leaf"
            }
        ],
        "type": "Normal"
    },
    {
        "children": [
            {
                "data": "2:24693",
                "leaf": "clip",
                "type": "Leaf"
            },
            {
                "data": "1:24693",
                "leaf": "clip",
                "type": "Leaf"
            }
        ],
        "type": "Normal"
    },
    {
        "children": [
            {
                "data": "2:26232",
                "leaf": "clip",
                "type": "Leaf"
            },
            {
                "data": "1:26232",
                "leaf": "clip",
                "type": "Leaf"
            }
        ],
        "type": "Normal"
    },
    {
        "children": [
            {
                "data": "2:23668",
                "leaf": "clip",
                "type": "Leaf"
            },
            {
                "data": "1:23668",
                "leaf": "clip",
                "type": "Leaf"
            }
        ],
        "type": "Normal"
    },
    {
        "children": [
            {
                "data": "2:17043",
                "leaf": "clip",
                "type": "Leaf"
            },
            {
                "data": "1:17043",
                "leaf": "clip",
                "type": "Leaf"
            }
        ],
        "type": "Normal"
    },
    {
        "children": [
            {
                "data": "2:22629",
                "leaf": "clip",
                "type": "Leaf"
            },
            {
                "data": "1:22629",
                "leaf": "clip",
                "type": "Leaf"
            }
        ],
        "type": "Normal"
    },
    {
        "children": [
            {
                "data": "2:16097",
                "leaf": "clip",
                "type": "Leaf"
            },
            {
                "data": "1:16097",
                "leaf": "clip",
                "type": "Leaf"
            }
        ],
        "type": "Normal"
    },
    {
        "children": [
            {
                "data": "2:21569",
                "leaf": "clip",
                "type": "Leaf"
            },
            {
                "data": "1:21569",
                "leaf": "clip",
                "type": "Leaf"
            }
        ],
        "type": "Normal"
    },
    {
        "children": [
            {
                "data": "2:15987",
                "leaf": "clip",
                "type": "Leaf"
            },
            {
                "data": "1:15987",
                "leaf": "clip",
                "type": "Leaf"
            }
        ],
        "type": "Normal"
    },
    {
        "children": [
            {
                "data": "2:17210",
                "leaf": "clip",
                "type": "Leaf"
            },
            {
                "data": "1:17210",
                "leaf": "clip",
                "type": "Leaf"
            }
        ],
        "type": "Normal"
    },
    {
        "children": [
            {
                "data": "2:15838",
                "leaf": "clip",
                "type": "Leaf"
            },
            {
                "data": "1:15838",
                "leaf": "clip",
                "type": "Leaf"
            }
        ],
        "type": "Normal"
    },
    {
        "children": [
            {
                "data": "1:8691",
                "leaf": "clip",
                "type": "Leaf"
            },
            {
                "data": "2:8691",
                "leaf": "clip",
                "type": "Leaf"
            }
        ],
        "type": "Normal"
    }
]
</property>
  <property name="xml_retain">1</property>
  <entry producer="producer0" in="00:00:00.000" out="00:00:22.100"/>
  <entry producer="producer1" in="00:00:00.000" out="00:15:06.367"/>
  <entry producer="producer2" in="00:00:00.000" out="00:15:05.683"/>
  <entry producer="producer3" in="00:00:00.000" out="00:00:04.983"/>
  <entry producer="producer4" in="00:00:00.000" out="00:00:04.983"/>
  <entry producer="producer5" in="00:00:00.000" out="00:00:04.983"/>
  <entry producer="producer6" in="00:00:00.000" out="00:00:04.983"/>
  <entry producer="producer7" in="00:00:00.000" out="00:00:04.983"/>
  <entry producer="producer8" in="00:00:00.000" out="00:00:04.983"/>
  <entry producer="producer9" in="00:00:00.000" out="00:00:04.983"/>
  <entry producer="producer10" in="00:00:00.000" out="00:00:04.983"/>
  <entry producer="producer11" in="00:00:00.000" out="00:00:04.983"/>
  <entry producer="producer12" in="00:00:00.000" out="00:00:04.983"/>
 </playlist>
 <producer id="black_track" in="00:00:00.000" out="00:15:56.083">
  <property name="length">2147483647</property>
  <property name="eof">continue</property>
  <property name="resource">black</property>
  <property name="aspect_ratio">1</property>
  <property name="mlt_service">color</property>
  <property name="mlt_image_format">rgba</property>
  <property name="set.test_audio">0</property>
 </producer>
 <playlist id="playlist0">
  <property name="kdenlive:audio_track">1</property>
 </playlist>
 <playlist id="playlist1">
  <property name="kdenlive:audio_track">1</property>
 </playlist>
 <tractor id="tractor0" in="00:00:00.000">
  <property name="kdenlive:audio_track">1</property>
  <property name="kdenlive:trackheight">69</property>
  <property name="kdenlive:timeline_active">1</property>
  <property name="kdenlive:collapsed">0</property>
  <property name="kdenlive:thumbs_format"/>
  <property name="kdenlive:audio_rec"/>
  <track hide="video" producer="playlist0"/>
  <track hide="video" producer="playlist1"/>
  <filter id="filter0">
   <property name="window">75</property>
   <property name="max_gain">20dB</property>
   <property name="mlt_service">volume</property>
   <property name="internal_added">237</property>
   <property name="disable">1</property>
  </filter>
  <filter id="filter1">
   <property name="channel">-1</property>
   <property name="mlt_service">panner</property>
   <property name="internal_added">237</property>
   <property name="start">0.5</property>
   <property name="disable">1</property>
  </filter>
  <filter id="filter2">
   <property name="iec_scale">0</property>
   <property name="mlt_service">audiolevel</property>
   <property name="dbpeak">1</property>
   <property name="disable">1</property>
  </filter>
 </tractor>
 <producer id="producer13" in="00:00:00.000" out="00:15:05.683">
  <property name="length">54342</property>
  <property name="eof">pause</property>
  <property name="resource">vidsec/WhatsApp Audio 2023-01-21 at 10.11.10 AM0001.m4a</property>
  <property name="meta.media.nb_streams">1</property>
  <property name="meta.media.0.stream.type">audio</property>
  <property name="meta.media.0.codec.sample_fmt">fltp</property>
  <property name="meta.media.0.codec.sample_rate">48000</property>
  <property name="meta.media.0.codec.channels">2</property>
  <property name="meta.media.0.codec.name">aac</property>
  <property name="meta.media.0.codec.long_name">AAC (Advanced Audio Coding)</property>
  <property name="meta.media.0.codec.bit_rate">163401</property>
  <property name="meta.attr.0.stream.handler_name.markup">SoundHandler</property>
  <property name="meta.attr.0.stream.vendor_id.markup">[0][0][0][0]</property>
  <property name="meta.attr.major_brand.markup">M4A </property>
  <property name="meta.attr.minor_version.markup">512</property>
  <property name="meta.attr.compatible_brands.markup">M4A isomiso2</property>
  <property name="meta.attr.encoder.markup">Lavf59.16.100</property>
  <property name="seekable">1</property>
  <property name="audio_index">0</property>
  <property name="video_index">-1</property>
  <property name="mute_on_pause">0</property>
  <property name="mlt_service">avformat-novalidate</property>
  <property name="kdenlive:clipname"/>
  <property name="kdenlive:clip_type">1</property>
  <property name="kdenlive:originalurl">vidsec/WhatsApp Audio 2023-01-21 at 10.11.10 AM0001.m4a</property>
  <property name="kdenlive:id">2</property>
  <property name="kdenlive:file_size">18670520</property>
  <property name="kdenlive:file_hash">9d4e929cf5986d6fa3aa3285087e1079</property>
  <property name="kdenlive:folderid">-1</property>
  <property name="kdenlive:audio_max0">150</property>
  <property name="xml">was here</property>
  <property name="set.test_audio">0</property>
  <property name="set.test_image">1</property>
 </producer>
 <playlist id="playlist2">
  <property name="kdenlive:audio_track">1</property>
  <entry producer="producer13" in="00:00:06.817" out="00:00:25.833">
   <property name="kdenlive:id">2</property>
   <filter id="filter3">
    <property name="window">75</property>
    <property name="max_gain">20dB</property>
    <property name="level">00:00:06.817=20</property>
    <property name="mlt_service">volume</property>
    <property name="kdenlive_id">volume</property>
    <property name="kdenlive:collapsed">0</property>
   </filter>
  </entry>
  <entry producer="producer13" in="00:00:28.117" out="00:01:00.617">
   <property name="kdenlive:id">2</property>
   <filter id="filter4">
    <property name="window">75</property>
    <property name="max_gain">20dB</property>
    <property name="level">00:00:28.117=20</property>
    <property name="mlt_service">volume</property>
    <property name="kdenlive_id">volume</property>
    <property name="kdenlive:collapsed">0</property>
   </filter>
  </entry>
  <entry producer="producer13" in="00:01:08.800" out="00:01:28.833">
   <property name="kdenlive:id">2</property>
   <filter id="filter5">
    <property name="window">75</property>
    <property name="max_gain">20dB</property>
    <property name="level">00:01:08.800=20</property>
    <property name="mlt_service">volume</property>
    <property name="kdenlive_id">volume</property>
    <property name="kdenlive:collapsed">0</property>
   </filter>
  </entry>
  <entry producer="producer13" in="00:01:35.067" out="00:02:36.850">
   <property name="kdenlive:id">2</property>
   <filter id="filter6">
    <property name="window">75</property>
    <property name="max_gain">20dB</property>
    <property name="level">00:01:35.067=20</property>
    <property name="mlt_service">volume</property>
    <property name="kdenlive_id">volume</property>
    <property name="kdenlive:collapsed">0</property>
   </filter>
  </entry>
  <entry producer="producer13" in="00:02:36.867" out="00:02:48.300">
   <property name="kdenlive:id">2</property>
   <filter id="filter7">
    <property name="window">75</property>
    <property name="max_gain">20dB</property>
    <property name="level">00:02:36.867=20</property>
    <property name="mlt_service">volume</property>
    <property name="kdenlive_id">volume</property>
   </filter>
  </entry>
  <entry producer="producer13" in="00:02:57.250" out="00:03:36.150">
   <property name="kdenlive:id">2</property>
   <filter id="filter8">
    <property name="window">75</property>
    <property name="max_gain">20dB</property>
    <property name="level">00:02:57.250=20</property>
    <property name="mlt_service">volume</property>
    <property name="kdenlive_id">volume</property>
    <property name="kdenlive:collapsed">0</property>
   </filter>
  </entry>
  <entry producer="producer13" in="00:03:36.167" out="00:03:54.933">
   <property name="kdenlive:id">2</property>
   <filter id="filter9">
    <property name="window">75</property>
    <property name="max_gain">20dB</property>
    <property name="level">00:03:36.167=20</property>
    <property name="mlt_service">volume</property>
    <property name="kdenlive_id">volume</property>
   </filter>
  </entry>
  <entry producer="producer13" in="00:03:57.733" out="00:04:19.883">
   <property name="kdenlive:id">2</property>
   <filter id="filter10">
    <property name="window">75</property>
    <property name="max_gain">20dB</property>
    <property name="level">00:03:57.733=20</property>
    <property name="mlt_service">volume</property>
    <property name="kdenlive_id">volume</property>
    <property name="kdenlive:collapsed">0</property>
   </filter>
  </entry>
  <entry producer="producer13" in="00:04:21.433" out="00:04:31.683">
   <property name="kdenlive:id">2</property>
   <filter id="filter11">
    <property name="window">75</property>
    <property name="max_gain">20dB</property>
    <property name="level">00:04:21.433=20</property>
    <property name="mlt_service">volume</property>
    <property name="kdenlive_id">volume</property>
    <property name="kdenlive:collapsed">0</property>
   </filter>
  </entry>
  <entry producer="producer13" in="00:04:33.667" out="00:04:46.617">
   <property name="kdenlive:id">2</property>
   <filter id="filter12">
    <property name="window">75</property>
    <property name="max_gain">20dB</property>
    <property name="level">00:04:33.667=20</property>
    <property name="mlt_service">volume</property>
    <property name="kdenlive_id">volume</property>
    <property name="kdenlive:collapsed">0</property>
   </filter>
  </entry>
  <entry producer="producer13" in="00:04:57.333" out="00:05:03.900">
   <property name="kdenlive:id">2</property>
   <filter id="filter13">
    <property name="window">75</property>
    <property name="max_gain">20dB</property>
    <property name="level">00:04:57.333=20</property>
    <property name="mlt_service">volume</property>
    <property name="kdenlive_id">volume</property>
    <property name="kdenlive:collapsed">0</property>
   </filter>
  </entry>
  <entry producer="producer13" in="00:05:14.567" out="00:05:21.883">
   <property name="kdenlive:id">2</property>
   <filter id="filter14">
    <property name="window">75</property>
    <property name="max_gain">20dB</property>
    <property name="level">00:05:14.567=20</property>
    <property name="mlt_service">volume</property>
    <property name="kdenlive_id">volume</property>
    <property name="kdenlive:collapsed">0</property>
   </filter>
  </entry>
  <entry producer="producer13" in="00:05:22.867" out="00:05:24.950">
   <property name="kdenlive:id">2</property>
   <filter id="filter15">
    <property name="window">75</property>
    <property name="max_gain">20dB</property>
    <property name="level">00:05:22.867=20</property>
    <property name="mlt_service">volume</property>
    <property name="kdenlive_id">volume</property>
    <property name="kdenlive:collapsed">0</property>
   </filter>
  </entry>
  <entry producer="producer13" in="00:05:26.367" out="00:05:28.833">
   <property name="kdenlive:id">2</property>
   <filter id="filter16">
    <property name="window">75</property>
    <property name="max_gain">20dB</property>
    <property name="level">00:05:26.367=20</property>
    <property name="mlt_service">volume</property>
    <property name="kdenlive_id">volume</property>
    <property name="kdenlive:collapsed">0</property>
   </filter>
  </entry>
  <entry producer="producer13" in="00:05:29.900" out="00:05:31.717">
   <property name="kdenlive:id">2</property>
   <filter id="filter17">
    <property name="window">75</property>
    <property name="max_gain">20dB</property>
    <property name="level">00:05:29.900=20</property>
    <property name="mlt_service">volume</property>
    <property name="kdenlive_id">volume</property>
    <property name="kdenlive:collapsed">0</property>
   </filter>
  </entry>
  <entry producer="producer13" in="00:05:38.983" out="00:05:54.733">
   <property name="kdenlive:id">2</property>
   <filter id="filter18">
    <property name="window">75</property>
    <property name="max_gain">20dB</property>
    <property name="level">00:05:38.983=20</property>
    <property name="mlt_service">volume</property>
    <property name="kdenlive_id">volume</property>
    <property name="kdenlive:collapsed">0</property>
   </filter>
  </entry>
  <entry producer="producer13" in="00:05:57.567" out="00:06:00.333">
   <property name="kdenlive:id">2</property>
   <filter id="filter19">
    <property name="window">75</property>
    <property name="max_gain">20dB</property>
    <property name="level">00:05:57.567=20</property>
    <property name="mlt_service">volume</property>
    <property name="kdenlive_id">volume</property>
    <property name="kdenlive:collapsed">0</property>
   </filter>
  </entry>
  <entry producer="producer13" in="00:06:20.450" out="00:07:33.083">
   <property name="kdenlive:id">2</property>
   <filter id="filter20">
    <property name="window">75</property>
    <property name="max_gain">20dB</property>
    <property name="level">00:06:20.450=20</property>
    <property name="mlt_service">volume</property>
    <property name="kdenlive_id">volume</property>
    <property name="kdenlive:collapsed">0</property>
   </filter>
  </entry>
  <entry producer="producer13" in="00:07:42.900" out="00:08:00.550">
   <property name="kdenlive:id">2</property>
   <filter id="filter21">
    <property name="window">75</property>
    <property name="max_gain">20dB</property>
    <property name="level">00:07:42.900=20</property>
    <property name="mlt_service">volume</property>
    <property name="kdenlive_id">volume</property>
    <property name="kdenlive:collapsed">0</property>
   </filter>
  </entry>
  <entry producer="producer13" in="00:08:08.800" out="00:08:26.100">
   <property name="kdenlive:id">2</property>
   <filter id="filter22">
    <property name="window">75</property>
    <property name="max_gain">20dB</property>
    <property name="level">00:08:08.800=20</property>
    <property name="mlt_service">volume</property>
    <property name="kdenlive_id">volume</property>
    <property name="kdenlive:collapsed">0</property>
   </filter>
  </entry>
  <entry producer="producer13" in="00:08:29.550" out="00:08:46.617">
   <property name="kdenlive:id">2</property>
   <filter id="filter23">
    <property name="window">75</property>
    <property name="max_gain">20dB</property>
    <property name="level">00:08:29.550=20</property>
    <property name="mlt_service">volume</property>
    <property name="kdenlive_id">volume</property>
    <property name="kdenlive:collapsed">0</property>
   </filter>
  </entry>
  <entry producer="producer13" in="00:09:10.300" out="00:09:27.917">
   <property name="kdenlive:id">2</property>
   <filter id="filter24">
    <property name="window">75</property>
    <property name="max_gain">20dB</property>
    <property name="level">00:09:10.300=20</property>
    <property name="mlt_service">volume</property>
    <property name="kdenlive_id">volume</property>
    <property name="kdenlive:collapsed">0</property>
   </filter>
  </entry>
  <entry producer="producer13" in="00:09:32.483" out="00:09:40.483">
   <property name="kdenlive:id">2</property>
   <filter id="filter25">
    <property name="window">75</property>
    <property name="max_gain">20dB</property>
    <property name="level">00:09:32.483=20</property>
    <property name="mlt_service">volume</property>
    <property name="kdenlive_id">volume</property>
    <property name="kdenlive:collapsed">0</property>
   </filter>
  </entry>
  <entry producer="producer13" in="00:10:59.683" out="00:11:06.650">
   <property name="kdenlive:id">2</property>
   <filter id="filter26">
    <property name="window">75</property>
    <property name="max_gain">20dB</property>
    <property name="level">00:10:59.683=20</property>
    <property name="mlt_service">volume</property>
    <property name="kdenlive_id">volume</property>
    <property name="kdenlive:collapsed">0</property>
   </filter>
  </entry>
  <entry producer="producer13" in="00:12:06.500" out="00:12:10.667">
   <property name="kdenlive:id">2</property>
   <filter id="filter27">
    <property name="window">75</property>
    <property name="max_gain">20dB</property>
    <property name="level">00:12:06.500=20</property>
    <property name="mlt_service">volume</property>
    <property name="kdenlive_id">volume</property>
    <property name="kdenlive:collapsed">0</property>
   </filter>
  </entry>
  <blank length="00:00:01.317"/>
  <entry producer="producer13" in="00:13:07.300" out="00:13:08.467">
   <property name="kdenlive:id">2</property>
   <filter id="filter28">
    <property name="window">75</property>
    <property name="max_gain">20dB</property>
    <property name="level">00:13:07.300=20</property>
    <property name="mlt_service">volume</property>
    <property name="kdenlive_id">volume</property>
    <property name="kdenlive:collapsed">0</property>
   </filter>
  </entry>
  <entry producer="producer13" in="00:14:54.200" out="00:14:59.400">
   <property name="kdenlive:id">2</property>
   <filter id="filter29">
    <property name="window">75</property>
    <property name="max_gain">20dB</property>
    <property name="level">00:14:54.200=20</property>
    <property name="mlt_service">volume</property>
    <property name="kdenlive_id">volume</property>
    <property name="kdenlive:collapsed">0</property>
   </filter>
  </entry>
 </playlist>
 <playlist id="playlist3">
  <property name="kdenlive:audio_track">1</property>
 </playlist>
 <tractor id="tractor1" in="00:00:00.000" out="00:07:36.067">
  <property name="kdenlive:audio_track">1</property>
  <property name="kdenlive:trackheight">69</property>
  <property name="kdenlive:timeline_active">1</property>
  <property name="kdenlive:collapsed">0</property>
  <property name="kdenlive:thumbs_format"/>
  <property name="kdenlive:audio_rec"/>
  <track hide="video" producer="playlist2"/>
  <track hide="video" producer="playlist3"/>
  <filter id="filter30">
   <property name="window">75</property>
   <property name="max_gain">20dB</property>
   <property name="mlt_service">volume</property>
   <property name="internal_added">237</property>
   <property name="disable">1</property>
  </filter>
  <filter id="filter31">
   <property name="channel">-1</property>
   <property name="mlt_service">panner</property>
   <property name="internal_added">237</property>
   <property name="start">0.5</property>
   <property name="disable">1</property>
  </filter>
  <filter id="filter32">
   <property name="iec_scale">0</property>
   <property name="mlt_service">audiolevel</property>
   <property name="dbpeak">1</property>
   <property name="disable">1</property>
  </filter>
 </tractor>
 <producer id="producer14" in="00:00:00.000" out="00:15:06.367">
  <property name="length">54383</property>
  <property name="eof">pause</property>
  <property name="resource">vidsec/2023-01-21 09-55-15.mkv</property>
  <property name="audio_index">1</property>
  <property name="video_index">0</property>
  <property name="mute_on_pause">0</property>
  <property name="mlt_service">avformat-novalidate</property>
  <property name="seekable">1</property>
  <property name="aspect_ratio">1</property>
  <property name="format">3</property>
  <property name="kdenlive:clipname"/>
  <property name="kdenlive:clip_type">0</property>
  <property name="kdenlive:folderid">-1</property>
  <property name="kdenlive:id">4</property>
  <property name="kdenlive:file_size">103810906</property>
  <property name="kdenlive:file_hash">5dfd7268dbb42afb2b47cb0b22cbd9cd</property>
  <property name="kdenlive:audio_max1">196</property>
  <property name="xml">was here</property>
  <property name="meta.media.nb_streams">2</property>
  <property name="meta.media.0.stream.type">video</property>
  <property name="meta.media.0.stream.frame_rate">60</property>
  <property name="meta.media.0.stream.sample_aspect_ratio">0</property>
  <property name="meta.media.0.codec.width">1272</property>
  <property name="meta.media.0.codec.height">720</property>
  <property name="meta.media.0.codec.rotate">0</property>
  <property name="meta.media.0.codec.pix_fmt">yuv420p</property>
  <property name="meta.media.0.codec.sample_aspect_ratio">1</property>
  <property name="meta.media.0.codec.colorspace">709</property>
  <property name="meta.media.0.codec.color_trc">1</property>
  <property name="meta.media.0.codec.name">h264</property>
  <property name="meta.media.0.codec.long_name">H.264 / AVC / MPEG-4 AVC / MPEG-4 part 10</property>
  <property name="meta.media.0.codec.bit_rate">0</property>
  <property name="meta.attr.0.stream.DURATION.markup">00:15:06.384000000</property>
  <property name="meta.media.1.stream.type">audio</property>
  <property name="meta.media.1.codec.sample_fmt">fltp</property>
  <property name="meta.media.1.codec.sample_rate">48000</property>
  <property name="meta.media.1.codec.channels">2</property>
  <property name="meta.media.1.codec.name">aac</property>
  <property name="meta.media.1.codec.long_name">AAC (Advanced Audio Coding)</property>
  <property name="meta.media.1.codec.bit_rate">0</property>
  <property name="meta.attr.1.stream.title.markup">simple_aac_recording</property>
  <property name="meta.attr.1.stream.DURATION.markup">00:15:06.346000000</property>
  <property name="meta.attr.ENCODER.markup">Lavf58.76.100</property>
  <property name="meta.media.sample_aspect_num">1</property>
  <property name="meta.media.sample_aspect_den">1</property>
  <property name="meta.media.frame_rate_num">60</property>
  <property name="meta.media.frame_rate_den">1</property>
  <property name="meta.media.colorspace">709</property>
  <property name="meta.media.color_trc">1</property>
  <property name="meta.media.has_b_frames">2</property>
  <property name="meta.media.width">1272</property>
  <property name="meta.media.height">720</property>
  <property name="meta.media.color_range">mpeg</property>
  <property name="meta.media.top_field_first">0</property>
  <property name="meta.media.progressive">1</property>
  <property name="set.test_audio">1</property>
  <property name="set.test_image">0</property>
 </producer>
 <playlist id="playlist4">
  <entry producer="producer14" in="00:00:06.817" out="00:00:25.833">
   <property name="kdenlive:id">4</property>
  </entry>
  <entry producer="producer14" in="00:00:28.117" out="00:01:00.617">
   <property name="kdenlive:id">4</property>
  </entry>
  <entry producer="producer14" in="00:01:08.800" out="00:01:28.833">
   <property name="kdenlive:id">4</property>
  </entry>
  <entry producer="producer14" in="00:01:35.067" out="00:02:36.850">
   <property name="kdenlive:id">4</property>
  </entry>
  <entry producer="producer14" in="00:02:36.867" out="00:02:48.300">
   <property name="kdenlive:id">4</property>
  </entry>
  <entry producer="producer14" in="00:02:57.250" out="00:03:36.150">
   <property name="kdenlive:id">4</property>
  </entry>
  <entry producer="producer14" in="00:03:36.167" out="00:03:54.933">
   <property name="kdenlive:id">4</property>
  </entry>
  <entry producer="producer14" in="00:03:57.733" out="00:04:19.883">
   <property name="kdenlive:id">4</property>
  </entry>
  <entry producer="producer14" in="00:04:21.433" out="00:04:31.683">
   <property name="kdenlive:id">4</property>
  </entry>
  <entry producer="producer14" in="00:04:33.667" out="00:04:46.617">
   <property name="kdenlive:id">4</property>
  </entry>
  <entry producer="producer14" in="00:04:57.333" out="00:05:03.900">
   <property name="kdenlive:id">4</property>
  </entry>
  <entry producer="producer14" in="00:05:14.567" out="00:05:21.883">
   <property name="kdenlive:id">4</property>
  </entry>
  <entry producer="producer14" in="00:05:22.867" out="00:05:24.950">
   <property name="kdenlive:id">4</property>
  </entry>
  <entry producer="producer14" in="00:05:26.367" out="00:05:28.833">
   <property name="kdenlive:id">4</property>
  </entry>
  <entry producer="producer14" in="00:05:29.900" out="00:05:31.717">
   <property name="kdenlive:id">4</property>
  </entry>
  <entry producer="producer14" in="00:05:38.983" out="00:05:54.733">
   <property name="kdenlive:id">4</property>
  </entry>
  <entry producer="producer14" in="00:05:57.567" out="00:06:00.333">
   <property name="kdenlive:id">4</property>
  </entry>
  <entry producer="producer14" in="00:06:20.450" out="00:07:33.083">
   <property name="kdenlive:id">4</property>
  </entry>
  <entry producer="producer14" in="00:07:42.900" out="00:08:00.550">
   <property name="kdenlive:id">4</property>
  </entry>
  <entry producer="producer14" in="00:08:08.800" out="00:08:26.100">
   <property name="kdenlive:id">4</property>
  </entry>
  <entry producer="producer14" in="00:08:29.550" out="00:08:46.617">
   <property name="kdenlive:id">4</property>
  </entry>
  <entry producer="producer14" in="00:09:10.300" out="00:09:27.917">
   <property name="kdenlive:id">4</property>
  </entry>
  <entry producer="producer14" in="00:09:32.483" out="00:09:40.483">
   <property name="kdenlive:id">4</property>
  </entry>
  <entry producer="producer14" in="00:10:59.683" out="00:11:06.650">
   <property name="kdenlive:id">4</property>
  </entry>
  <entry producer="producer14" in="00:12:06.500" out="00:12:10.667">
   <property name="kdenlive:id">4</property>
  </entry>
  <blank length="00:00:01.317"/>
  <entry producer="producer14" in="00:13:07.300" out="00:13:08.467">
   <property name="kdenlive:id">4</property>
  </entry>
  <entry producer="producer14" in="00:14:54.200" out="00:14:59.400">
   <property name="kdenlive:id">4</property>
  </entry>
 </playlist>
 <playlist id="playlist5"/>
 <tractor id="tractor2" in="00:00:00.000" out="00:07:36.067">
  <property name="kdenlive:trackheight">69</property>
  <property name="kdenlive:timeline_active">1</property>
  <property name="kdenlive:collapsed">28</property>
  <property name="kdenlive:thumbs_format"/>
  <property name="kdenlive:audio_rec"/>
  <track hide="audio" producer="playlist4"/>
  <track hide="audio" producer="playlist5"/>
 </tractor>
 <playlist id="playlist6">
  <blank length="00:00:59.817"/>
  <entry producer="producer5" in="00:00:00.000" out="00:00:02.317">
   <property name="kdenlive:id">11</property>
  </entry>
  <blank length="00:00:03.967"/>
  <entry producer="producer4" in="00:00:00.000" out="00:00:05.433">
   <property name="kdenlive:id">10</property>
  </entry>
  <blank length="00:00:24.917"/>
  <entry producer="producer3" in="00:00:00.000" out="00:00:04.983">
   <property name="kdenlive:id">9</property>
  </entry>
  <blank length="00:03:59.517"/>
  <entry producer="producer7" in="00:00:00.000" out="00:00:02.717">
   <property name="kdenlive:id">13</property>
  </entry>
  <blank length="00:00:05.083"/>
  <entry producer="producer8" in="00:00:00.000" out="00:00:01.283">
   <property name="kdenlive:id">14</property>
  </entry>
  <blank length="00:01:02.517"/>
  <entry producer="producer9" in="00:00:00.000" out="00:00:02.183">
   <property name="kdenlive:id">15</property>
  </entry>
  <blank length="00:00:33.533"/>
  <entry producer="producer10" in="00:00:00.000" out="00:00:00.383">
   <property name="kdenlive:id">16</property>
  </entry>
  <entry producer="producer11" in="00:00:00.000" out="00:00:00.433">
   <property name="kdenlive:id">17</property>
  </entry>
  <entry producer="producer12" in="00:00:00.000" out="00:00:00.450">
   <property name="kdenlive:id">18</property>
  </entry>
 </playlist>
 <playlist id="playlist7"/>
 <tractor id="tractor3" in="00:00:00.000" out="00:07:29.667">
  <property name="kdenlive:trackheight">69</property>
  <property name="kdenlive:timeline_active">1</property>
  <property name="kdenlive:collapsed">28</property>
  <property name="kdenlive:thumbs_format"/>
  <property name="kdenlive:audio_rec"/>
  <track hide="audio" producer="playlist6"/>
  <track hide="audio" producer="playlist7"/>
 </tractor>
 <playlist id="playlist8">
  <blank length="00:01:08.667"/>
  <entry producer="producer6" in="00:00:00.000" out="00:00:02.883">
   <property name="kdenlive:id">12</property>
  </entry>
 </playlist>
 <playlist id="playlist9"/>
 <tractor id="tractor4" in="00:00:00.000" out="00:01:11.550">
  <property name="kdenlive:trackheight">69</property>
  <property name="kdenlive:timeline_active">1</property>
  <property name="kdenlive:collapsed">28</property>
  <track producer="playlist8"/>
  <track producer="playlist9"/>
 </tractor>
 <tractor id="tractor5" in="00:00:00.000" out="00:15:56.083">
  <track producer="black_track"/>
  <track producer="tractor0"/>
  <track producer="tractor1"/>
  <track producer="tractor2"/>
  <track producer="tractor3"/>
  <track producer="tractor4"/>
  <transition id="transition0">
   <property name="a_track">0</property>
   <property name="b_track">1</property>
   <property name="mlt_service">mix</property>
   <property name="kdenlive_id">mix</property>
   <property name="internal_added">237</property>
   <property name="always_active">1</property>
   <property name="accepts_blanks">1</property>
   <property name="sum">1</property>
  </transition>
  <transition id="transition1">
   <property name="a_track">0</property>
   <property name="b_track">2</property>
   <property name="mlt_service">mix</property>
   <property name="kdenlive_id">mix</property>
   <property name="internal_added">237</property>
   <property name="always_active">1</property>
   <property name="accepts_blanks">1</property>
   <property name="sum">1</property>
  </transition>
  <transition id="transition2">
   <property name="a_track">0</property>
   <property name="b_track">3</property>
   <property name="compositing">0</property>
   <property name="distort">0</property>
   <property name="rotate_center">0</property>
   <property name="mlt_service">qtblend</property>
   <property name="kdenlive_id">qtblend</property>
   <property name="internal_added">237</property>
   <property name="always_active">1</property>
  </transition>
  <transition id="transition3">
   <property name="a_track">0</property>
   <property name="b_track">4</property>
   <property name="compositing">0</property>
   <property name="distort">0</property>
   <property name="rotate_center">0</property>
   <property name="mlt_service">qtblend</property>
   <property name="kdenlive_id">qtblend</property>
   <property name="internal_added">237</property>
   <property name="always_active">1</property>
  </transition>
  <transition id="transition4">
   <property name="a_track">0</property>
   <property name="b_track">5</property>
   <property name="compositing">0</property>
   <property name="distort">0</property>
   <property name="rotate_center">0</property>
   <property name="mlt_service">qtblend</property>
   <property name="kdenlive_id">qtblend</property>
   <property name="internal_added">237</property>
   <property name="always_active">1</property>
  </transition>
  <filter id="filter33">
   <property name="window">75</property>
   <property name="max_gain">20dB</property>
   <property name="mlt_service">volume</property>
   <property name="internal_added">237</property>
   <property name="disable">1</property>
  </filter>
  <filter id="filter34">
   <property name="channel">-1</property>
   <property name="mlt_service">panner</property>
   <property name="internal_added">237</property>
   <property name="start">0.5</property>
   <property name="disable">1</property>
  </filter>
 </tractor>
</mlt>
